<svg xmlns="http://www.w3.org/2000/svg" xml:space="preserve" style="enable-background:new 0 0 2810 300" viewBox="0 0 2810 300"><path d="M.3 1.4 261 101.5v37.2L.3 245.4v-39.3l79-30.4v-109L.3 38V1.4zm107 75.2V165l72.2-27.2c21.9-8.3 40-14.5 54.1-18.5-16.7-3.3-33.3-8-49.8-14l-76.5-28.7z" style="fill:#af4261"/><linearGradient id="a" x1="329.596" x2="2812.878" y1="216.571" y2="216.571" gradientUnits="userSpaceOnUse"><stop offset="0" style="stop-color:#deb671"/><stop offset=".183" style="stop-color:#d8a76f"/><stop offset=".537" style="stop-color:#c87f69"/><stop offset="1" style="stop-color:#af4261"/></linearGradient><path d="M351.2 263.9h-21.6V147.8h84.8v18.1h-63.2v98zm-1.9-62.7h57.9v18.3h-57.9v-18.3z" style="fill:url(#a)"/><linearGradient id="b" x1="329.596" x2="2812.878" y1="216.571" y2="216.571" gradientUnits="userSpaceOnUse"><stop offset="0" style="stop-color:#deb671"/><stop offset=".183" style="stop-color:#d8a76f"/><stop offset=".537" style="stop-color:#c87f69"/><stop offset="1" style="stop-color:#af4261"/></linearGradient><path d="M443.7 160.7c-3.9 0-7.1-1.2-9.5-3.6-2.5-2.4-3.7-5.4-3.7-8.8 0-3.5 1.2-6.5 3.7-8.9 2.5-2.4 5.7-3.6 9.5-3.6 3.9 0 7.1 1.1 9.5 3.4 2.5 2.3 3.7 5.1 3.7 8.5 0 3.6-1.2 6.7-3.6 9.2-2.4 2.6-5.6 3.8-9.6 3.8zm-10.4 103.2v-88.6H454v88.6h-20.7z" style="fill:url(#b)"/><linearGradient id="c" x1="329.596" x2="2812.878" y1="216.571" y2="216.571" gradientUnits="userSpaceOnUse"><stop offset="0" style="stop-color:#deb671"/><stop offset=".183" style="stop-color:#d8a76f"/><stop offset=".537" style="stop-color:#c87f69"/><stop offset="1" style="stop-color:#af4261"/></linearGradient><path d="M481.2 263.9V140.8H502v55.1l-1.7 23.6.7 23.5v20.9h-19.8zm49.1 1.2c-7.5 0-14.2-1.7-20.1-5-5.9-3.3-10.5-8.3-13.9-15-3.4-6.7-5.1-15.2-5.1-25.5 0-10.4 1.7-18.9 5.2-25.5 3.5-6.6 8.2-11.6 14.1-14.8 5.9-3.3 12.5-4.9 19.7-4.9 8.7 0 16.5 1.9 23.1 5.6 6.7 3.8 12 9 15.9 15.8 3.9 6.7 5.9 14.7 5.9 23.9s-2 17.1-5.9 23.9c-3.9 6.7-9.2 12-15.9 15.8-6.5 3.8-14.2 5.7-23 5.7zm-2.3-17.8c5 0 9.4-1.1 13.4-3.3 3.9-2.2 7.1-5.4 9.4-9.6 2.3-4.2 3.5-9.1 3.5-14.8 0-5.8-1.2-10.7-3.5-14.8s-5.4-7.3-9.4-9.5c-3.9-2.2-8.4-3.3-13.4-3.3s-9.5 1.1-13.4 3.3c-4 2.2-7.1 5.4-9.5 9.5-2.3 4.1-3.5 9.1-3.5 14.8 0 5.6 1.2 10.6 3.5 14.8 2.3 4.2 5.5 7.4 9.5 9.6 4 2.2 8.4 3.3 13.4 3.3z" style="fill:url(#c)"/><linearGradient id="d" x1="329.596" x2="2812.878" y1="216.571" y2="216.571" gradientUnits="userSpaceOnUse"><stop offset="0" style="stop-color:#deb671"/><stop offset=".183" style="stop-color:#d8a76f"/><stop offset=".537" style="stop-color:#c87f69"/><stop offset="1" style="stop-color:#af4261"/></linearGradient><path d="M634.9 265.1c-9.1 0-17.1-2-24.2-5.9-7.1-3.9-12.7-9.3-16.8-16.2-4.1-6.9-6.1-14.7-6.1-23.4 0-8.8 2-16.7 6.1-23.5 4.1-6.8 9.7-12.1 16.8-16 7.1-3.9 15.2-5.8 24.2-5.8 9.2 0 17.3 1.9 24.5 5.8 7.1 3.9 12.7 9.2 16.8 15.9 4 6.7 6.1 14.6 6.1 23.6 0 8.7-2 16.5-6.1 23.4-4 6.9-9.6 12.3-16.8 16.2-7.2 3.9-15.4 5.9-24.5 5.9zm0-17.8c5.1 0 9.6-1.1 13.6-3.3 4-2.2 7.1-5.4 9.4-9.6 2.3-4.2 3.4-9.1 3.4-14.8 0-5.8-1.1-10.7-3.4-14.8-2.3-4.1-5.4-7.3-9.4-9.5s-8.5-3.3-13.4-3.3c-5.1 0-9.6 1.1-13.5 3.3-3.9 2.2-7.1 5.4-9.4 9.5-2.3 4.1-3.5 9.1-3.5 14.8 0 5.6 1.2 10.6 3.5 14.8 2.3 4.2 5.4 7.4 9.4 9.6 3.8 2.2 8.3 3.3 13.3 3.3z" style="fill:url(#d)"/><linearGradient id="e" x1="329.596" x2="2812.878" y1="216.571" y2="216.571" gradientUnits="userSpaceOnUse"><stop offset="0" style="stop-color:#deb671"/><stop offset=".183" style="stop-color:#d8a76f"/><stop offset=".537" style="stop-color:#c87f69"/><stop offset="1" style="stop-color:#af4261"/></linearGradient><path d="M752.3 174.3c7.1 0 13.4 1.4 19 4.1 5.6 2.8 10 7 13.2 12.7 3.2 5.7 4.8 13 4.8 22v50.8h-20.7v-48.1c0-7.9-1.9-13.7-5.6-17.6-3.7-3.9-8.9-5.8-15.5-5.8-4.9 0-9.2 1-12.9 3-3.8 2-6.7 5-8.7 8.9-2 3.9-3.1 8.9-3.1 14.8v44.8h-20.7v-88.6h19.7v23.9l-3.5-7.3c3.1-5.6 7.6-10 13.5-13 6-3 12.8-4.6 20.5-4.6z" style="fill:url(#e)"/><linearGradient id="f" x1="329.596" x2="2812.878" y1="216.571" y2="216.571" gradientUnits="userSpaceOnUse"><stop offset="0" style="stop-color:#deb671"/><stop offset=".183" style="stop-color:#d8a76f"/><stop offset=".537" style="stop-color:#c87f69"/><stop offset="1" style="stop-color:#af4261"/></linearGradient><path d="M842.4 265.1c-6.6 0-12.4-1.1-17.4-3.4-5-2.3-8.8-5.4-11.5-9.5-2.7-4-4.1-8.6-4.1-13.7 0-5 1.2-9.5 3.6-13.4 2.4-4 6.3-7.1 11.7-9.5 5.4-2.3 12.6-3.5 21.6-3.5H872v13.8h-24.2c-7.1 0-11.8 1.1-14.3 3.4-2.4 2.3-3.6 5.1-3.6 8.4 0 3.8 1.5 6.7 4.5 9 3 2.2 7.1 3.3 12.4 3.3 5.1 0 9.6-1.2 13.7-3.5 4-2.3 6.9-5.7 8.7-10.3l3.5 12.4c-2 5.2-5.6 9.2-10.7 12.1-5.2 3-11.7 4.4-19.6 4.4zm27.9-1.2V246l-1.2-3.8v-31.4c0-6.1-1.8-10.8-5.5-14.2-3.6-3.4-9.2-5.1-16.6-5.1-5 0-9.9.8-14.7 2.3-4.8 1.6-8.9 3.7-12.2 6.5l-8.1-15.1c4.8-3.7 10.4-6.4 17-8.2 6.6-1.8 13.4-2.7 20.5-2.7 12.8 0 22.8 3.1 29.8 9.2s10.5 15.6 10.5 28.5v51.9h-19.5z" style="fill:url(#f)"/><linearGradient id="g" x1="329.596" x2="2812.878" y1="216.571" y2="216.571" gradientUnits="userSpaceOnUse"><stop offset="0" style="stop-color:#deb671"/><stop offset=".183" style="stop-color:#d8a76f"/><stop offset=".537" style="stop-color:#c87f69"/><stop offset="1" style="stop-color:#af4261"/></linearGradient><path d="M957.1 265.1c-9.3 0-17.6-2-24.8-5.9-7.2-3.9-12.9-9.3-17-16.2-4.1-6.9-6.1-14.7-6.1-23.4 0-8.8 2-16.7 6.1-23.5 4.1-6.8 9.8-12.1 17-16 7.2-3.9 15.5-5.8 24.8-5.8 8.6 0 16.2 1.7 22.8 5.2 6.6 3.5 11.6 8.6 15 15.3l-15.9 9.3c-2.7-4.2-5.9-7.3-9.7-9.3-3.8-2-7.9-3-12.4-3-5.1 0-9.7 1.1-13.8 3.3-4.1 2.2-7.3 5.4-9.6 9.5s-3.5 9.1-3.5 14.8c0 5.8 1.2 10.7 3.5 14.8 2.3 4.1 5.5 7.3 9.6 9.5s8.7 3.3 13.8 3.3c4.4 0 8.5-1 12.4-3 3.8-2 7.1-5.1 9.7-9.3l15.9 9.3c-3.4 6.6-8.4 11.8-15 15.3-6.6 4-14.2 5.8-22.8 5.8z" style="fill:url(#g)"/><linearGradient id="h" x1="329.596" x2="2812.878" y1="216.571" y2="216.571" gradientUnits="userSpaceOnUse"><stop offset="0" style="stop-color:#deb671"/><stop offset=".183" style="stop-color:#d8a76f"/><stop offset=".537" style="stop-color:#c87f69"/><stop offset="1" style="stop-color:#af4261"/></linearGradient><path d="M1053.4 265.1c-9.3 0-17.6-2-24.8-5.9-7.2-3.9-12.9-9.3-17-16.2-4.1-6.9-6.1-14.7-6.1-23.4 0-8.8 2-16.7 6.1-23.5 4.1-6.8 9.8-12.1 17-16 7.2-3.9 15.5-5.8 24.8-5.8 8.6 0 16.2 1.7 22.8 5.2 6.6 3.5 11.6 8.6 15 15.3l-15.9 9.3c-2.7-4.2-5.9-7.3-9.7-9.3-3.8-2-7.9-3-12.4-3-5.1 0-9.7 1.1-13.8 3.3-4.1 2.2-7.3 5.4-9.6 9.5s-3.5 9.1-3.5 14.8c0 5.8 1.2 10.7 3.5 14.8 2.3 4.1 5.5 7.3 9.6 9.5s8.7 3.3 13.8 3.3c4.4 0 8.5-1 12.4-3 3.8-2 7.1-5.1 9.7-9.3l15.9 9.3c-3.4 6.6-8.4 11.8-15 15.3-6.5 4-14.1 5.8-22.8 5.8z" style="fill:url(#h)"/><linearGradient id="i" x1="329.596" x2="2812.878" y1="216.571" y2="216.571" gradientUnits="userSpaceOnUse"><stop offset="0" style="stop-color:#deb671"/><stop offset=".183" style="stop-color:#d8a76f"/><stop offset=".537" style="stop-color:#c87f69"/><stop offset="1" style="stop-color:#af4261"/></linearGradient><path d="M1119.6 160.7c-3.9 0-7.1-1.2-9.5-3.6-2.5-2.4-3.7-5.4-3.7-8.8 0-3.5 1.2-6.5 3.7-8.9 2.5-2.4 5.7-3.6 9.5-3.6 3.9 0 7.1 1.1 9.5 3.4 2.5 2.3 3.7 5.1 3.7 8.5 0 3.6-1.2 6.7-3.6 9.2-2.4 2.6-5.6 3.8-9.6 3.8zm-10.4 103.2v-88.6h20.7v88.6h-20.7z" style="fill:url(#i)"/><linearGradient id="j" x1="329.596" x2="2812.878" y1="216.571" y2="216.571" gradientUnits="userSpaceOnUse"><stop offset="0" style="stop-color:#deb671"/><stop offset=".183" style="stop-color:#d8a76f"/><stop offset=".537" style="stop-color:#c87f69"/><stop offset="1" style="stop-color:#af4261"/></linearGradient><path d="m1188.5 263.9 52.3-116.1h21.2l52.4 116.1h-22.6l-45-104.7h8.6l-44.8 104.7h-22.1zm24-26.8 5.8-16.9h62.7l5.8 16.9h-74.3z" style="fill:url(#j)"/><linearGradient id="k" x1="329.596" x2="2812.878" y1="216.571" y2="216.571" gradientUnits="userSpaceOnUse"><stop offset="0" style="stop-color:#deb671"/><stop offset=".183" style="stop-color:#d8a76f"/><stop offset=".537" style="stop-color:#c87f69"/><stop offset="1" style="stop-color:#af4261"/></linearGradient><path d="M1327.2 263.9V140.8h20.7v123.1h-20.7z" style="fill:url(#k)"/><linearGradient id="l" x1="329.596" x2="2812.878" y1="216.571" y2="216.571" gradientUnits="userSpaceOnUse"><stop offset="0" style="stop-color:#deb671"/><stop offset=".183" style="stop-color:#d8a76f"/><stop offset=".537" style="stop-color:#c87f69"/><stop offset="1" style="stop-color:#af4261"/></linearGradient><path d="M1412.6 260c-8.4 0-16-1.8-22.8-5.4-6.8-3.6-12.2-8.6-16.1-15-3.9-6.4-5.9-13.9-5.9-22.6 0-8.5 2-16 5.9-22.4 3.9-6.4 9.3-11.4 16.1-14.9 6.8-3.5 14.4-5.3 22.8-5.3 7.5 0 14.3 1.5 20.2 4.5s10.8 7.6 14.4 13.9c3.6 6.3 5.4 14.4 5.4 24.2 0 9.8-1.8 17.9-5.4 24.3-3.6 6.4-8.4 11.1-14.4 14.1-5.9 3-12.7 4.6-20.2 4.6zm2.7 37.3c-8.2 0-16.2-1.1-24-3.2-7.8-2.2-14.2-5.3-19.2-9.4l9.3-15.6c3.9 3.2 8.8 5.8 14.7 7.7 5.9 1.9 11.9 2.9 18 2.9 9.7 0 16.9-2.2 21.4-6.7s6.8-11.2 6.8-20.2V237l1.7-20.1-.7-20.1v-21.6h19.7v75.2c0 16-4.1 27.8-12.3 35.4-8.1 7.7-19.9 11.5-35.4 11.5zm.5-54.9c5.2 0 9.8-1.1 13.9-3.2 4.1-2.2 7.3-5.1 9.5-9 2.3-3.8 3.4-8.2 3.4-13.2s-1.1-9.4-3.4-13.2c-2.3-3.8-5.4-6.7-9.5-8.8-4.1-2-8.7-3.1-13.9-3.1-5.2 0-9.9 1-14 3.1-4.1 2-7.4 5-9.6 8.8-2.3 3.8-3.4 8.2-3.4 13.2s1.1 9.4 3.4 13.2c2.3 3.8 5.5 6.8 9.6 9 4.1 2.1 8.8 3.2 14 3.2z" style="fill:url(#l)"/><linearGradient id="m" x1="329.596" x2="2812.878" y1="216.571" y2="216.571" gradientUnits="userSpaceOnUse"><stop offset="0" style="stop-color:#deb671"/><stop offset=".183" style="stop-color:#d8a76f"/><stop offset=".537" style="stop-color:#c87f69"/><stop offset="1" style="stop-color:#af4261"/></linearGradient><path d="M1530.1 265.1c-9.1 0-17.1-2-24.2-5.9-7.1-3.9-12.7-9.3-16.8-16.2-4.1-6.9-6.1-14.7-6.1-23.4 0-8.8 2-16.7 6.1-23.5 4.1-6.8 9.7-12.1 16.8-16 7.1-3.9 15.2-5.8 24.2-5.8 9.2 0 17.3 1.9 24.5 5.8 7.1 3.9 12.7 9.2 16.8 15.9 4 6.7 6.1 14.6 6.1 23.6 0 8.7-2 16.5-6.1 23.4-4 6.9-9.6 12.3-16.8 16.2-7.2 3.9-15.3 5.9-24.5 5.9zm0-17.8c5.1 0 9.6-1.1 13.6-3.3 4-2.2 7.1-5.4 9.4-9.6 2.3-4.2 3.4-9.1 3.4-14.8 0-5.8-1.1-10.7-3.4-14.8-2.3-4.1-5.4-7.3-9.4-9.5s-8.5-3.3-13.4-3.3c-5.1 0-9.6 1.1-13.5 3.3-3.9 2.2-7.1 5.4-9.4 9.5-2.3 4.1-3.5 9.1-3.5 14.8 0 5.6 1.2 10.6 3.5 14.8 2.3 4.2 5.4 7.4 9.4 9.6 3.9 2.2 8.3 3.3 13.3 3.3z" style="fill:url(#m)"/><linearGradient id="n" x1="329.596" x2="2812.878" y1="216.571" y2="216.571" gradientUnits="userSpaceOnUse"><stop offset="0" style="stop-color:#deb671"/><stop offset=".183" style="stop-color:#d8a76f"/><stop offset=".537" style="stop-color:#c87f69"/><stop offset="1" style="stop-color:#af4261"/></linearGradient><path d="M1597.3 263.9v-88.6h19.7v24.4l-2.3-7.1c2.7-6 6.8-10.5 12.5-13.6 5.7-3.1 12.8-4.6 21.3-4.6v19.7c-.9-.2-1.7-.4-2.5-.4-.8-.1-1.6-.1-2.3-.1-7.9 0-14.1 2.3-18.7 6.9-4.6 4.6-7 11.4-7 20.5v43h-20.7z" style="fill:url(#n)"/><linearGradient id="o" x1="329.596" x2="2812.878" y1="216.571" y2="216.571" gradientUnits="userSpaceOnUse"><stop offset="0" style="stop-color:#deb671"/><stop offset=".183" style="stop-color:#d8a76f"/><stop offset=".537" style="stop-color:#c87f69"/><stop offset="1" style="stop-color:#af4261"/></linearGradient><path d="M1677.4 160.7c-3.9 0-7.1-1.2-9.5-3.6-2.5-2.4-3.7-5.4-3.7-8.8 0-3.5 1.2-6.5 3.7-8.9 2.5-2.4 5.7-3.6 9.5-3.6 3.9 0 7.1 1.1 9.5 3.4 2.5 2.3 3.7 5.1 3.7 8.5 0 3.6-1.2 6.7-3.6 9.2-2.4 2.6-5.6 3.8-9.6 3.8zM1667 263.9v-88.6h20.7v88.6H1667z" style="fill:url(#o)"/><linearGradient id="p" x1="329.596" x2="2812.878" y1="216.571" y2="216.571" gradientUnits="userSpaceOnUse"><stop offset="0" style="stop-color:#deb671"/><stop offset=".183" style="stop-color:#d8a76f"/><stop offset=".537" style="stop-color:#c87f69"/><stop offset="1" style="stop-color:#af4261"/></linearGradient><path d="M1703.1 192.6V176h59.1v16.6h-59.1zm45.2 72.5c-9.7 0-17.3-2.5-22.6-7.5-5.3-5-8-12.5-8-22.3v-79.5h20.7v79c0 4.2 1.1 7.5 3.2 9.8 2.2 2.3 5.2 3.5 9 3.5 4.6 0 8.5-1.2 11.6-3.7l5.8 14.8c-2.4 2-5.4 3.5-9 4.5-3.3.9-7 1.4-10.7 1.4z" style="fill:url(#p)"/><linearGradient id="q" x1="329.596" x2="2812.878" y1="216.571" y2="216.571" gradientUnits="userSpaceOnUse"><stop offset="0" style="stop-color:#deb671"/><stop offset=".183" style="stop-color:#d8a76f"/><stop offset=".537" style="stop-color:#c87f69"/><stop offset="1" style="stop-color:#af4261"/></linearGradient><path d="M1835.5 174.3c7.1 0 13.4 1.4 19 4.1 5.6 2.8 10 7 13.2 12.7 3.2 5.7 4.8 13 4.8 22v50.8h-20.7v-48.1c0-7.9-1.9-13.7-5.6-17.6-3.7-3.9-8.9-5.8-15.5-5.8-4.9 0-9.2 1-12.9 3-3.8 2-6.7 5-8.7 8.9-2 3.9-3.1 8.9-3.1 14.8v44.8h-20.7V140.8h20.7v58.4l-4.5-7.3c3.1-5.6 7.6-10 13.5-13s12.8-4.6 20.5-4.6z" style="fill:url(#q)"/><linearGradient id="r" x1="329.596" x2="2812.878" y1="216.571" y2="216.571" gradientUnits="userSpaceOnUse"><stop offset="0" style="stop-color:#deb671"/><stop offset=".183" style="stop-color:#d8a76f"/><stop offset=".537" style="stop-color:#c87f69"/><stop offset="1" style="stop-color:#af4261"/></linearGradient><path d="M2010.7 174.3c7.1 0 13.4 1.4 18.8 4.1 5.5 2.8 9.8 7 12.9 12.7 3.1 5.7 4.6 13 4.6 22v50.8h-20.7v-48.1c0-7.9-1.7-13.7-5.1-17.6-3.4-3.9-8.4-5.8-14.8-5.8-4.5 0-8.5 1-12 3s-6.2 4.9-8.1 8.8c-1.9 3.9-2.9 8.8-2.9 14.8v45h-20.7v-48.1c0-7.9-1.7-13.7-5.1-17.6-3.4-3.9-8.4-5.8-14.8-5.8-4.5 0-8.5 1-12 3s-6.2 4.9-8.1 8.8c-1.9 3.9-2.9 8.8-2.9 14.8v45h-20.7v-88.6h19.7v23.6l-3.5-7c3-5.8 7.3-10.1 13-13.1s12.2-4.5 19.5-4.5c8.3 0 15.5 2 21.7 6.1 6.1 4.1 10.2 10.3 12.2 18.6l-8.1-2.8c2.9-6.6 7.6-11.9 14.3-15.9 6.4-4.2 14.1-6.2 22.8-6.2z" style="fill:url(#r)"/><linearGradient id="s" x1="329.596" x2="2812.878" y1="216.571" y2="216.571" gradientUnits="userSpaceOnUse"><stop offset="0" style="stop-color:#deb671"/><stop offset=".183" style="stop-color:#d8a76f"/><stop offset=".537" style="stop-color:#c87f69"/><stop offset="1" style="stop-color:#af4261"/></linearGradient><path d="M2084.1 160.7c-3.9 0-7.1-1.2-9.5-3.6-2.5-2.4-3.7-5.4-3.7-8.8 0-3.5 1.2-6.5 3.7-8.9 2.5-2.4 5.7-3.6 9.5-3.6 3.9 0 7.1 1.1 9.5 3.4 2.5 2.3 3.7 5.1 3.7 8.5 0 3.6-1.2 6.7-3.6 9.2-2.5 2.6-5.7 3.8-9.6 3.8zm-10.5 103.2v-88.6h20.7v88.6h-20.7z" style="fill:url(#s)"/><linearGradient id="t" x1="329.596" x2="2812.878" y1="216.571" y2="216.571" gradientUnits="userSpaceOnUse"><stop offset="0" style="stop-color:#deb671"/><stop offset=".183" style="stop-color:#d8a76f"/><stop offset=".537" style="stop-color:#c87f69"/><stop offset="1" style="stop-color:#af4261"/></linearGradient><path d="M2162.2 265.1c-9.3 0-17.6-2-24.8-5.9-7.2-3.9-12.9-9.3-17-16.2-4.1-6.9-6.1-14.7-6.1-23.4 0-8.8 2-16.7 6.1-23.5 4.1-6.8 9.8-12.1 17-16 7.2-3.9 15.5-5.8 24.8-5.8 8.6 0 16.2 1.7 22.8 5.2 6.6 3.5 11.6 8.6 15 15.3l-15.9 9.3c-2.7-4.2-5.9-7.3-9.7-9.3-3.8-2-7.9-3-12.4-3-5.1 0-9.7 1.1-13.8 3.3-4.1 2.2-7.3 5.4-9.6 9.5s-3.5 9.1-3.5 14.8c0 5.8 1.2 10.7 3.5 14.8 2.3 4.1 5.5 7.3 9.6 9.5s8.7 3.3 13.8 3.3c4.4 0 8.5-1 12.4-3 3.8-2 7.1-5.1 9.7-9.3l15.9 9.3c-3.4 6.6-8.4 11.8-15 15.3-6.6 4-14.2 5.8-22.8 5.8z" style="fill:url(#t)"/><linearGradient id="u" x1="329.596" x2="2812.878" y1="216.571" y2="216.571" gradientUnits="userSpaceOnUse"><stop offset="0" style="stop-color:#deb671"/><stop offset=".183" style="stop-color:#d8a76f"/><stop offset=".537" style="stop-color:#c87f69"/><stop offset="1" style="stop-color:#af4261"/></linearGradient><path d="M2301.7 265.6c-9.1 0-17.8-1.3-26-3.9-8.3-2.6-14.9-5.9-19.7-10l7.5-16.8c4.6 3.7 10.4 6.7 17.3 9.1 6.9 2.4 13.9 3.7 21.1 3.7 6.1 0 11-.7 14.8-2 3.8-1.3 6.5-3.1 8.3-5.4 1.8-2.3 2.7-4.8 2.7-7.7 0-3.5-1.3-6.4-3.8-8.5-2.5-2.2-5.8-3.9-9.9-5.1-4-1.3-8.5-2.5-13.4-3.6s-9.8-2.4-14.8-3.9c-4.9-1.5-9.4-3.4-13.4-5.8s-7.3-5.6-9.9-9.5c-2.5-4-3.8-9.1-3.8-15.3 0-6.3 1.7-12.1 5.1-17.3 3.4-5.3 8.5-9.5 15.4-12.6 6.9-3.2 15.7-4.7 26.3-4.7 7 0 13.9.9 20.7 2.7 6.9 1.8 12.8 4.3 17.9 7.6l-6.8 16.8c-5.2-3.1-10.6-5.4-16.1-6.9-5.5-1.5-10.8-2.2-15.9-2.2-6 0-10.8.7-14.5 2.2-3.7 1.4-6.4 3.3-8.1 5.6-1.7 2.3-2.6 5-2.6 8 0 3.5 1.2 6.4 3.7 8.5 2.5 2.2 5.8 3.8 9.8 5.1 4 1.2 8.5 2.4 13.5 3.6 5 1.2 9.9 2.5 14.8 3.9s9.4 3.3 13.4 5.6 7.3 5.5 9.8 9.5c2.5 4 3.7 9 3.7 15.1 0 6.2-1.7 11.9-5.1 17.2-3.4 5.3-8.5 9.5-15.5 12.6-7.1 2.8-15.9 4.4-26.5 4.4z" style="fill:url(#u)"/><linearGradient id="v" x1="329.596" x2="2812.878" y1="216.571" y2="216.571" gradientUnits="userSpaceOnUse"><stop offset="0" style="stop-color:#deb671"/><stop offset=".183" style="stop-color:#d8a76f"/><stop offset=".537" style="stop-color:#c87f69"/><stop offset="1" style="stop-color:#af4261"/></linearGradient><path d="M2408.7 265.1c-9.3 0-17.6-2-24.8-5.9-7.2-3.9-12.9-9.3-17-16.2-4.1-6.9-6.1-14.7-6.1-23.4 0-8.8 2-16.7 6.1-23.5 4.1-6.8 9.8-12.1 17-16 7.2-3.9 15.5-5.8 24.8-5.8 8.6 0 16.2 1.7 22.8 5.2 6.6 3.5 11.6 8.6 15 15.3l-15.9 9.3c-2.7-4.2-5.9-7.3-9.7-9.3-3.8-2-7.9-3-12.4-3-5.1 0-9.7 1.1-13.8 3.3-4.1 2.2-7.3 5.4-9.6 9.5s-3.5 9.1-3.5 14.8c0 5.8 1.2 10.7 3.5 14.8 2.3 4.1 5.5 7.3 9.6 9.5s8.7 3.3 13.8 3.3c4.4 0 8.5-1 12.4-3 3.8-2 7.1-5.1 9.7-9.3l15.9 9.3c-3.4 6.6-8.4 11.8-15 15.3-6.5 4-14.1 5.8-22.8 5.8z" style="fill:url(#v)"/><linearGradient id="w" x1="329.596" x2="2812.878" y1="216.571" y2="216.571" gradientUnits="userSpaceOnUse"><stop offset="0" style="stop-color:#deb671"/><stop offset=".183" style="stop-color:#d8a76f"/><stop offset=".537" style="stop-color:#c87f69"/><stop offset="1" style="stop-color:#af4261"/></linearGradient><path d="M2514.7 174.3c7.1 0 13.4 1.4 19 4.1 5.6 2.8 10 7 13.2 12.7 3.2 5.7 4.8 13 4.8 22v50.8H2531v-48.1c0-7.9-1.9-13.7-5.6-17.6-3.7-3.9-8.9-5.8-15.5-5.8-4.9 0-9.2 1-12.9 3-3.8 2-6.7 5-8.7 8.9-2 3.9-3.1 8.9-3.1 14.8v44.8h-20.7V140.8h20.7v58.4l-4.5-7.3c3.1-5.6 7.6-10 13.5-13 6-3 12.8-4.6 20.5-4.6z" style="fill:url(#w)"/><linearGradient id="x" x1="329.596" x2="2812.878" y1="216.571" y2="216.571" gradientUnits="userSpaceOnUse"><stop offset="0" style="stop-color:#deb671"/><stop offset=".183" style="stop-color:#d8a76f"/><stop offset=".537" style="stop-color:#c87f69"/><stop offset="1" style="stop-color:#af4261"/></linearGradient><path d="M2617.9 265.1c-9.1 0-17.1-2-24.2-5.9-7.1-3.9-12.7-9.3-16.8-16.2-4.1-6.9-6.1-14.7-6.1-23.4 0-8.8 2-16.7 6.1-23.5 4.1-6.8 9.7-12.1 16.8-16 7.1-3.9 15.2-5.8 24.2-5.8 9.2 0 17.3 1.9 24.5 5.8 7.1 3.9 12.7 9.2 16.8 15.9 4 6.7 6.1 14.6 6.1 23.6 0 8.7-2 16.5-6.1 23.4-4 6.9-9.6 12.3-16.8 16.2-7.1 3.9-15.3 5.9-24.5 5.9zm0-17.8c5.1 0 9.6-1.1 13.6-3.3 4-2.2 7.1-5.4 9.4-9.6 2.3-4.2 3.4-9.1 3.4-14.8 0-5.8-1.1-10.7-3.4-14.8-2.3-4.1-5.4-7.3-9.4-9.5s-8.5-3.3-13.4-3.3c-5.1 0-9.6 1.1-13.5 3.3-3.9 2.2-7.1 5.4-9.4 9.5-2.3 4.1-3.5 9.1-3.5 14.8 0 5.6 1.2 10.6 3.5 14.8 2.3 4.2 5.4 7.4 9.4 9.6 3.9 2.2 8.4 3.3 13.3 3.3z" style="fill:url(#x)"/><linearGradient id="y" x1="329.596" x2="2812.878" y1="216.571" y2="216.571" gradientUnits="userSpaceOnUse"><stop offset="0" style="stop-color:#deb671"/><stop offset=".183" style="stop-color:#d8a76f"/><stop offset=".537" style="stop-color:#c87f69"/><stop offset="1" style="stop-color:#af4261"/></linearGradient><path d="M2724.9 265.1c-9.1 0-17.1-2-24.2-5.9-7.1-3.9-12.7-9.3-16.8-16.2-4.1-6.9-6.1-14.7-6.1-23.4 0-8.8 2-16.7 6.1-23.5 4.1-6.8 9.7-12.1 16.8-16 7.1-3.9 15.2-5.8 24.2-5.8 9.2 0 17.3 1.9 24.5 5.8 7.1 3.9 12.7 9.2 16.8 15.9 4 6.7 6.1 14.6 6.1 23.6 0 8.7-2 16.5-6.1 23.4-4 6.9-9.6 12.3-16.8 16.2-7.1 3.9-15.3 5.9-24.5 5.9zm0-17.8c5.1 0 9.6-1.1 13.6-3.3 4-2.2 7.1-5.4 9.4-9.6 2.3-4.2 3.4-9.1 3.4-14.8 0-5.8-1.1-10.7-3.4-14.8-2.3-4.1-5.4-7.3-9.4-9.5s-8.5-3.3-13.4-3.3c-5.1 0-9.6 1.1-13.5 3.3-3.9 2.2-7.1 5.4-9.4 9.5-2.3 4.1-3.5 9.1-3.5 14.8 0 5.6 1.2 10.6 3.5 14.8 2.3 4.2 5.4 7.4 9.4 9.6 3.9 2.2 8.4 3.3 13.3 3.3z" style="fill:url(#y)"/><linearGradient id="z" x1="329.596" x2="2812.878" y1="216.571" y2="216.571" gradientUnits="userSpaceOnUse"><stop offset="0" style="stop-color:#deb671"/><stop offset=".183" style="stop-color:#d8a76f"/><stop offset=".537" style="stop-color:#c87f69"/><stop offset="1" style="stop-color:#af4261"/></linearGradient><path d="M2792.1 263.9V140.8h20.7v123.1h-20.7z" style="fill:url(#z)"/></svg>