<svg xmlns="http://www.w3.org/2000/svg" xml:space="preserve" id="Layer_1" x="0" y="0" style="enable-background:new 0 0 400 220" version="1.1" viewBox="0 0 400 220"><style>.st0{fill:#fff}.st1{fill:none;stroke:#fff;stroke-width:2}.st2{fill-rule:evenodd;clip-rule:evenodd;fill:#fff}</style><path d="M90.1 136.1c.6.3 1 .6 1.3 1.1.3.4.5 1 .5 1.6 0 .7-.2 1.3-.6 1.8s-.9.9-1.6 1.2-1.5.4-2.4.4-1.7-.1-2.4-.4c-.7-.3-1.2-.7-1.6-1.2s-.6-1.1-.6-1.8c0-.6.2-1.1.5-1.6s.8-.8 1.3-1.1c-.4-.2-.8-.6-1-1s-.4-.9-.4-1.4c0-.6.2-1.2.5-1.6.4-.5.8-.8 1.5-1.1.6-.3 1.4-.4 2.2-.4.8 0 1.6.1 2.2.4.6.3 1.1.6 1.5 1.1s.5 1 .5 1.6c0 .5-.1 1-.4 1.4-.2.4-.6.8-1 1zm-2.8-3.8c-.7 0-1.2.1-1.6.4-.4.3-.6.7-.6 1.2s.2.9.6 1.2.9.4 1.6.4 1.2-.1 1.6-.4c.4-.3.6-.7.6-1.2s-.2-.9-.6-1.2-.9-.4-1.6-.4zm0 8.2c.8 0 1.4-.2 1.8-.5s.7-.8.7-1.3c0-.6-.2-1-.7-1.3-.4-.3-1.1-.5-1.8-.5-.8 0-1.4.2-1.8.5s-.7.8-.7 1.3c0 .6.2 1 .7 1.3.4.4 1 .5 1.8.5zm9.5-5.4c1.6 0 2.7.3 3.5.9.8.6 1.1 1.4 1.1 2.5 0 .7-.2 1.3-.5 1.8s-.8 1-1.5 1.3-1.5.5-2.4.5c-.8 0-1.6-.1-2.3-.3-.7-.2-1.4-.6-1.9-1l.9-1.6c.4.3.9.6 1.5.8s1.2.3 1.8.3c.7 0 1.3-.1 1.7-.4.4-.3.6-.7.6-1.3s-.2-1-.7-1.3c-.4-.3-1.2-.4-2.3-.4h-2.7l.6-6.1h6.6v1.7H96l-.2 2.6h1z" class="st0"/><path d="M92 117c10.5 0 19 8.5 19 19s-8.5 19-19 19-19-8.5-19-19 8.5-19 19-19z" class="st1"/><path d="M92 178.1c-.9 0-1.6-.2-2.3-.7-.7-.5-1.2-1.1-1.6-2s-.6-1.9-.6-3c0-1.2.2-2.2.6-3 .4-.9.9-1.5 1.6-2s1.5-.7 2.3-.7 1.6.2 2.3.7c.7.5 1.2 1.1 1.6 2s.6 1.9.6 3c0 1.2-.2 2.2-.6 3-.4.9-.9 1.5-1.6 2-.7.5-1.4.7-2.3.7zm0-1.1c.7 0 1.2-.2 1.7-.5.5-.4.9-.9 1.2-1.6.3-.7.4-1.5.4-2.5s-.1-1.8-.4-2.5-.7-1.2-1.2-1.6c-.5-.4-1.1-.5-1.7-.5-.7 0-1.2.2-1.7.5-.5.4-.9.9-1.2 1.6-.3.7-.4 1.5-.4 2.5s.1 1.8.4 2.5.7 1.2 1.2 1.6c.5.4 1 .5 1.7.5z" class="st0"/><path d="M125.3 128.3c.4-.4 1-.4 1.4 0l7.7 7.7-7.7 7.7c-.4.4-1 .4-1.4 0s-.4-1 0-1.4l6.3-6.3-6.3-6.3c-.4-.4-.4-1 0-1.4z" class="st2"/><path d="M160.9 130.8V142h-2.1v-9.5h-2.4v-1.7h4.5zm7 4.6c1 .1 1.8.5 2.4 1.1.5.6.8 1.3.8 2.2 0 .7-.2 1.2-.5 1.8-.3.5-.8 1-1.5 1.3s-1.5.5-2.4.5c-.8 0-1.6-.1-2.3-.3s-1.4-.6-1.9-1l.9-1.6c.4.3.9.6 1.5.8s1.2.3 1.8.3c.7 0 1.3-.1 1.7-.4.4-.3.6-.7.6-1.2s-.2-.9-.6-1.2c-.4-.3-1-.4-1.8-.4h-1v-1.4l2.5-3H163v-1.7h7.6v1.4l-2.7 2.8z" class="st0"/><path d="M164 117c10.5 0 19 8.5 19 19s-8.5 19-19 19-19-8.5-19-19 8.5-19 19-19z" class="st1"/><path d="M165 166.8V178h-1.2v-10.2h-2.6v-1h3.8z" class="st0"/><path d="M197.3 128.3c.4-.4 1-.4 1.4 0l7.7 7.7-7.7 7.7c-.4.4-1 .4-1.4 0s-.4-1 0-1.4l6.3-6.3-6.3-6.3c-.4-.4-.4-1 0-1.4z" class="st2"/><path d="M231.4 135.4c1 .1 1.8.5 2.4 1.1.5.6.8 1.3.8 2.2 0 .7-.2 1.2-.5 1.8-.3.5-.8 1-1.5 1.3s-1.5.5-2.4.5c-.8 0-1.6-.1-2.3-.3s-1.4-.6-1.9-1l.9-1.6c.4.3.9.6 1.5.8s1.2.3 1.8.3c.7 0 1.3-.1 1.7-.4.4-.3.6-.7.6-1.2s-.2-.9-.6-1.2c-.4-.3-1-.4-1.8-.4h-1v-1.4l2.5-3h-5.1v-1.7h7.6v1.4l-2.7 2.8zm14.5 4.1h-2v2.5h-2v-2.5h-6.1V138l5.5-7.2h2.2l-5.2 6.9h3.7v-2.3h2v2.3h2l-.1 1.8z" class="st0"/><path d="M236 117c10.5 0 19 8.5 19 19s-8.5 19-19 19-19-8.5-19-19 8.5-19 19-19z" class="st1"/><path d="M239.9 177v1H232v-.8l4.7-4.6c.6-.6 1-1.1 1.2-1.5s.3-.9.3-1.3c0-.7-.2-1.2-.7-1.5-.4-.4-1.1-.6-1.9-.6-1.3 0-2.3.4-3.1 1.2l-.8-.7c.4-.5 1-.9 1.7-1.2s1.5-.4 2.3-.4c1.1 0 2 .3 2.7.8s1 1.3 1 2.2c0 .6-.1 1.1-.4 1.7s-.7 1.1-1.5 1.8l-3.8 3.7h6.2v.2z" class="st0"/><path d="M269.3 128.3c.4-.4 1-.4 1.4 0l7.7 7.7-7.7 7.7c-.4.4-1 .4-1.4 0s-.4-1 0-1.4l6.3-6.3-6.3-6.3c-.4-.4-.4-1 0-1.4z" class="st2"/><path d="M309.5 130.8V142h-2.1v-9.5H305v-1.7h4.5z" class="st0"/><path d="M308 117c10.5 0 19 8.5 19 19s-8.5 19-19 19-19-8.5-19-19 8.5-19 19-19z" class="st1"/><path d="M308.1 171.6c1.2.1 2.1.4 2.7 1s.9 1.3.9 2.2c0 .6-.2 1.2-.5 1.7s-.8.9-1.4 1.2-1.3.4-2.2.4c-.8 0-1.6-.1-2.3-.4-.7-.3-1.3-.6-1.7-1.1l.6-.9c.4.4.9.7 1.5.9s1.3.4 2 .4c.9 0 1.6-.2 2.1-.6.5-.4.8-1 .8-1.7s-.3-1.2-.8-1.6c-.5-.4-1.3-.6-2.3-.6h-.8v-.8l3.1-3.9h-5.7v-1h7.2v.8l-3.2 4z" class="st0"/><path d="M236 80c6.6 0 12 5.4 12 12s-5.4 12-12 12-12-5.4-12-12 5.4-12 12-12z" style="fill:none;stroke:#fff;stroke-miterlimit:10"/><path d="M238.7 92.1c.6.3 1 .6 1.3 1.1.3.4.5 1 .5 1.6 0 .7-.2 1.3-.6 1.8-.4.5-.9.9-1.6 1.2-.7.3-1.5.4-2.4.4s-1.7-.1-2.4-.4-1.2-.7-1.6-1.2c-.4-.5-.6-1.1-.6-1.8 0-.6.2-1.1.5-1.6s.8-.8 1.3-1.1c-.4-.2-.8-.6-1-1s-.4-.9-.4-1.4c0-.6.2-1.2.5-1.6.4-.5.8-.8 1.5-1.1.6-.3 1.4-.4 2.2-.4s1.6.1 2.2.4c.6.3 1.1.6 1.5 1.1s.5 1 .5 1.6c0 .5-.1 1-.4 1.4-.1.4-.5.8-1 1zm-2.7-3.8c-.7 0-1.2.1-1.6.4-.4.3-.6.7-.6 1.2s.2.9.6 1.2c.4.3.9.4 1.6.4.7 0 1.2-.1 1.6-.4.4-.3.6-.7.6-1.2s-.2-.9-.6-1.2c-.5-.3-1-.4-1.6-.4zm0 8.2c.8 0 1.4-.2 1.8-.5.4-.3.7-.8.7-1.3 0-.6-.2-1-.7-1.3-.4-.3-1.1-.5-1.8-.5-.8 0-1.4.2-1.8.5-.4.3-.7.8-.7 1.3 0 .6.2 1 .7 1.3.4.4 1 .5 1.8.5z" class="st0"/></svg>