<svg xmlns="http://www.w3.org/2000/svg" xml:space="preserve" id="Layer_1" x="0" y="0" style="enable-background:new 0 0 400 220" version="1.1" viewBox="0 0 400 220"><style>.st0{fill:#fff}.st1{fill:none;stroke:#fff;stroke-width:2}</style><path d="M201.5 80.8V92h-2.1v-9.5H197v-1.7h4.5z" class="st0"/><path d="M200 67c10.5 0 19 8.5 19 19s-8.5 19-19 19-19-8.5-19-19 8.5-19 19-19z" class="st1"/><path d="M145.5 120.8V132h-2.1v-9.5H141v-1.7h4.5z" class="st0"/><path d="M144 107c10.5 0 19 8.5 19 19s-8.5 19-19 19-19-8.5-19-19 8.5-19 19-19z" class="st1"/><path d="M260.2 130.2v1.8h-8.3v-1.4l4.4-4.2c.5-.5.8-.9 1-1.2.2-.4.3-.7.3-1.1 0-.5-.2-.9-.5-1.2s-.9-.4-1.6-.4c-1.1 0-2 .4-2.6 1.2l-1.5-1.1c.4-.6 1-1 1.8-1.4.7-.3 1.6-.5 2.5-.5 1.2 0 2.2.3 2.9.9.7.6 1.1 1.4 1.1 2.4 0 .6-.1 1.2-.4 1.7-.3.5-.7 1.1-1.5 1.8l-3 2.8h5.4z" class="st0"/><path d="M256 107c10.5 0 19 8.5 19 19s-8.5 19-19 19-19-8.5-19-19 8.5-19 19-19z" class="st1"/><path d="M116.8 173.4c1 .1 1.8.5 2.4 1.1.5.6.8 1.3.8 2.2 0 .7-.2 1.2-.5 1.8-.3.5-.8 1-1.5 1.3-.7.3-1.5.5-2.4.5-.8 0-1.6-.1-2.3-.3-.7-.2-1.4-.6-1.9-1l.9-1.6c.4.3.9.6 1.5.8.6.2 1.2.3 1.8.3.7 0 1.3-.1 1.7-.4.4-.3.6-.7.6-1.2s-.2-.9-.6-1.2c-.4-.3-1-.4-1.8-.4h-1v-1.4l2.5-3h-5.1v-1.7h7.6v1.4l-2.7 2.8z" class="st0"/><path d="M116 155c10.5 0 19 8.5 19 19s-8.5 19-19 19-19-8.5-19-19 8.5-19 19-19z" class="st1"/><path d="M171.5 173.1c1.6 0 2.7.3 3.5.9.8.6 1.1 1.4 1.1 2.5 0 .7-.2 1.3-.5 1.8s-.8 1-1.5 1.3c-.7.3-1.5.5-2.4.5-.8 0-1.6-.1-2.3-.3-.7-.2-1.4-.6-1.9-1l.9-1.6c.4.3.9.6 1.5.8.6.2 1.2.3 1.8.3.7 0 1.3-.1 1.7-.4.4-.3.6-.7.6-1.3 0-.6-.2-1-.7-1.3-.4-.3-1.2-.4-2.3-.4h-2.7l.6-6.1h6.6v1.7h-4.8l-.2 2.6h1z" class="st0"/><path d="M172 155c10.5 0 19 8.5 19 19s-8.5 19-19 19-19-8.5-19-19 8.5-19 19-19z" class="st1"/><path d="M230.7 174.1c.6.3 1 .6 1.3 1.1.3.4.5 1 .5 1.6 0 .7-.2 1.3-.6 1.8-.4.5-.9.9-1.6 1.2-.7.3-1.5.4-2.4.4-.9 0-1.7-.1-2.4-.4-.7-.3-1.2-.7-1.6-1.2-.4-.5-.6-1.1-.6-1.8 0-.6.2-1.1.5-1.6s.8-.8 1.3-1.1c-.4-.2-.8-.6-1-1-.2-.4-.4-.9-.4-1.4 0-.6.2-1.2.5-1.6.4-.5.8-.8 1.5-1.1.6-.3 1.4-.4 2.2-.4.8 0 1.6.1 2.2.4.6.3 1.1.6 1.5 1.1.4.5.5 1 .5 1.6 0 .5-.1 1-.4 1.4-.1.4-.5.8-1 1zm-2.7-3.8c-.7 0-1.2.1-1.6.4-.4.3-.6.7-.6 1.2s.2.9.6 1.2c.4.3.9.4 1.6.4.7 0 1.2-.1 1.6-.4.4-.3.6-.7.6-1.2s-.2-.9-.6-1.2c-.5-.3-1-.4-1.6-.4zm0 8.2c.8 0 1.4-.2 1.8-.5.4-.3.7-.8.7-1.3 0-.6-.2-1-.7-1.3-.4-.3-1.1-.5-1.8-.5-.8 0-1.4.2-1.8.5-.4.3-.7.8-.7 1.3 0 .6.2 1 .7 1.3.4.4 1 .5 1.8.5z" class="st0"/><path d="M228 155c10.5 0 19 8.5 19 19s-8.5 19-19 19-19-8.5-19-19 8.5-19 19-19z" class="st1"/><path d="M280.9 168.8V180h-2.1v-9.5h-2.4v-1.7h4.5zm7 4.6c1 .1 1.8.5 2.4 1.1.5.6.8 1.3.8 2.2 0 .7-.2 1.2-.5 1.8-.3.5-.8 1-1.5 1.3-.7.3-1.5.5-2.4.5-.8 0-1.6-.1-2.3-.3-.7-.2-1.4-.6-1.9-1l.9-1.6c.4.3.9.6 1.5.8.6.2 1.2.3 1.8.3.7 0 1.3-.1 1.7-.4.4-.3.6-.7.6-1.2s-.2-.9-.6-1.2c-.4-.3-1-.4-1.8-.4h-1v-1.4l2.5-3H283v-1.7h7.6v1.4l-2.7 2.8z" class="st0"/><path d="M284 155c10.5 0 19 8.5 19 19s-8.5 19-19 19-19-8.5-19-19 8.5-19 19-19z" class="st1"/></svg>