<svg xmlns="http://www.w3.org/2000/svg" xml:space="preserve" id="Layer_1" x="0" y="0" style="enable-background:new 0 0 400 220" version="1.1" viewBox="0 0 400 220"><style>.st0{fill:none;stroke:#fff;stroke-width:2}.st1{fill:#fff}</style><path d="M88 105c10.5 0 19 8.5 19 19s-8.5 19-19 19-19-8.5-19-19 8.5-19 19-19z" class="st0"/><path d="M88.5 166.1c-.9 0-1.7-.2-2.4-.7-.7-.5-1.2-1.1-1.6-2-.4-.9-.6-1.9-.6-3.1 0-1.2.2-2.2.6-3.1.4-.9.9-1.5 1.6-2 .7-.5 1.5-.7 2.4-.7.9 0 1.7.2 2.3.7.7.4 1.2 1.1 1.6 2 .4.9.6 1.9.6 3.1 0 1.2-.2 2.2-.6 3.1-.4.9-.9 1.5-1.6 2-.6.5-1.4.7-2.3.7zm0-1.4c.9 0 1.6-.4 2.1-1.1.5-.7.8-1.8.8-3.2 0-1.4-.3-2.5-.8-3.2-.5-.7-1.2-1.1-2.1-1.1-.9 0-1.6.4-2.2 1.1-.5.7-.8 1.8-.8 3.2 0 1.4.3 2.5.8 3.2.6.7 1.3 1.1 2.2 1.1zM129.5 85.4c1.1 0 1.9.3 2.6.9.6.6 1 1.5 1 2.7v5h-1.5v-4.7c0-.8-.2-1.4-.6-1.9-.4-.4-1-.6-1.7-.6-.8 0-1.5.2-2 .7-.5.5-.7 1.2-.7 2.1V94h-1.5V82.1h1.5v4.6c.3-.4.7-.7 1.2-.9.5-.2 1-.4 1.7-.4zm14.1 4.4v.5h-6.9c.1.7.4 1.3 1 1.8.6.4 1.3.7 2.1.7 1 0 1.8-.3 2.4-1l.8 1c-.4.4-.9.8-1.4 1-.6.2-1.2.4-1.9.4-.9 0-1.7-.2-2.4-.5-.7-.4-1.2-.9-1.6-1.6-.4-.7-.6-1.4-.6-2.2 0-.8.2-1.6.5-2.2.4-.7.9-1.2 1.5-1.5.6-.4 1.4-.6 2.2-.6.8 0 1.5.2 2.2.6.6.4 1.1.9 1.5 1.5.4.5.6 1.3.6 2.1zm-4.2-3.1c-.7 0-1.4.2-1.9.7-.5.4-.8 1-.9 1.8h5.4c-.1-.7-.4-1.3-.9-1.7-.4-.5-1-.8-1.7-.8zm9.1-1.3c1.2 0 2.1.3 2.7.9.6.6.9 1.4.9 2.6V94h-1.5v-1.1c-.3.4-.6.7-1.1.9-.5.2-1 .3-1.7.3-.9 0-1.7-.2-2.3-.7-.6-.5-.8-1.1-.8-1.8s.3-1.3.8-1.8 1.4-.7 2.6-.7h2.4v-.3c0-.7-.2-1.2-.6-1.5-.4-.4-.9-.5-1.7-.5-.5 0-1 .1-1.5.3-.5.2-.9.4-1.2.7l-.6-1.2c.4-.4 1-.6 1.6-.8.7-.3 1.4-.4 2-.4zm-.3 7.5c.6 0 1.1-.1 1.5-.4.4-.3.7-.6.9-1.1v-1.2h-2.4c-1.3 0-2 .4-2 1.3 0 .4.2.8.5 1 .4.3.9.4 1.5.4zm14.9-10.8V94h-1.5v-1.3c-.3.5-.8.8-1.3 1.1-.5.2-1.1.4-1.7.4-.8 0-1.6-.2-2.2-.5-.7-.4-1.2-.9-1.5-1.5-.4-.7-.5-1.4-.5-2.3 0-.9.2-1.6.5-2.3.4-.7.9-1.2 1.5-1.5.6-.4 1.4-.5 2.2-.5.6 0 1.2.1 1.7.4.5.2.9.6 1.3 1v-4.7h1.5zm-4.4 10.7c.5 0 1-.1 1.5-.4.4-.3.8-.6 1-1.1.2-.5.4-1 .4-1.6s-.1-1.1-.4-1.6c-.2-.5-.6-.8-1-1.1-.4-.2-.9-.4-1.5-.4-.5 0-1 .1-1.5.4-.4.2-.8.6-1 1.1-.2.4-.4 1-.4 1.6s.1 1.1.4 1.6c.3.4.6.8 1 1.1.5.2.9.4 1.5.4zM148.2 128.2v1.8h-8.3v-1.4l4.4-4.2c.5-.5.8-.9 1-1.2.2-.4.3-.7.3-1.1 0-.5-.2-.9-.5-1.2-.4-.3-.9-.4-1.6-.4-1.1 0-2 .4-2.6 1.2l-1.5-1.1c.4-.6 1-1 1.8-1.4.7-.3 1.6-.5 2.5-.5 1.2 0 2.2.3 2.9.9.7.6 1.1 1.4 1.1 2.4 0 .6-.1 1.2-.4 1.7-.3.5-.7 1.1-1.5 1.8l-3 2.8h5.4z" class="st1"/><path d="M144 105c10.5 0 19 8.5 19 19s-8.5 19-19 19-19-8.5-19-19 8.5-19 19-19z" class="st0"/><path d="M145.3 154.8V166h-1.6v-9.8h-2.5v-1.4h4.1zM200.8 123.4c1 .1 1.8.5 2.4 1.1.5.6.8 1.3.8 2.2 0 .7-.2 1.2-.5 1.8-.3.5-.8 1-1.5 1.3-.7.3-1.5.5-2.4.5-.8 0-1.6-.1-2.3-.3-.7-.2-1.4-.6-1.9-1l.9-1.6c.4.3.9.6 1.5.8.6.2 1.2.3 1.8.3.7 0 1.3-.1 1.7-.4.4-.3.6-.7.6-1.2s-.2-.9-.6-1.2c-.4-.3-1-.4-1.8-.4h-1v-1.4l2.5-3h-5.1v-1.7h7.6v1.4l-2.7 2.8z" class="st1"/><path d="M200 105c10.5 0 19 8.5 19 19s-8.5 19-19 19-19-8.5-19-19 8.5-19 19-19z" class="st0"/><path d="M204 164.6v1.4h-8v-1.1l4.6-4.4c.6-.5.9-1 1.1-1.4.2-.4.3-.8.3-1.2 0-.6-.2-1-.6-1.4-.4-.3-1-.5-1.8-.5-1.2 0-2.2.4-2.9 1.2l-1.1-.9c.4-.5 1-.9 1.7-1.2.7-.3 1.5-.4 2.4-.4 1.2 0 2.1.3 2.8.8.7.6 1 1.3 1 2.3 0 .6-.1 1.2-.4 1.7-.3.5-.7 1.1-1.5 1.8l-3.4 3.3h5.8zM193.7 189.5c-.2.2-.5.3-.8.4-.3.1-.7.1-1 .1-.9 0-1.5-.2-2-.7-.5-.5-.7-1.1-.7-2v-4.7h-1.4v-1.3h1.4v-1.9h1.5v1.9h2.4v1.3h-2.4v4.6c0 .5.1.8.3 1.1.2.2.6.4 1 .4.5 0 .9-.1 1.2-.4l.5 1.2zm4.9-8.1c1.2 0 2.1.3 2.7.9.6.6.9 1.4.9 2.6v5.1h-1.5v-1.1c-.3.4-.6.7-1.1.9-.5.2-1 .3-1.7.3-.9 0-1.7-.2-2.3-.7-.6-.5-.8-1.1-.8-1.8s.3-1.3.8-1.8 1.4-.7 2.6-.7h2.4v-.3c0-.7-.2-1.2-.6-1.5-.4-.4-.9-.5-1.7-.5-.5 0-1 .1-1.5.3-.5.2-.9.4-1.2.7l-.6-1.2c.4-.4 1-.6 1.6-.8.7-.3 1.3-.4 2-.4zm-.3 7.5c.6 0 1.1-.1 1.5-.4.4-.3.7-.6.9-1.1v-1.2h-2.4c-1.3 0-2 .4-2 1.3 0 .4.2.8.5 1 .4.3.9.4 1.5.4zm6.8-7.4h1.5v8.5h-1.5v-8.5zm.7-1.6c-.3 0-.5-.1-.8-.3-.2-.2-.3-.4-.3-.7 0-.3.1-.5.3-.7.2-.2.5-.3.8-.3s.5.1.7.3c.2.2.3.4.3.7 0 .3-.1.5-.3.7-.1.2-.4.3-.7.3zm3.8-1.8h1.5V190h-1.5v-11.9z" class="st1"/><path d="M256 105c10.5 0 19 8.5 19 19s-8.5 19-19 19-19-8.5-19-19 8.5-19 19-19z" class="st0"/><path d="M256.5 159.5c1.1.1 1.9.4 2.5 1 .6.6.9 1.3.9 2.2 0 .6-.2 1.2-.5 1.7s-.8.9-1.4 1.2c-.6.3-1.4.4-2.3.4-.8 0-1.6-.1-2.3-.4-.7-.2-1.3-.6-1.8-1l.7-1.3c.4.4.9.7 1.5.9.6.2 1.2.3 1.9.3.8 0 1.5-.2 1.9-.5.5-.4.7-.8.7-1.5s-.2-1.1-.7-1.4c-.5-.3-1.2-.5-2.1-.5h-.9v-1.1l2.8-3.5H252v-1.4h7.4v1.1l-2.9 3.8z" class="st1"/><path d="M312 105c10.5 0 19 8.5 19 19s-8.5 19-19 19-19-8.5-19-19 8.5-19 19-19z" class="st0"/><path d="M317.7 163.2h-2.1v2.8H314v-2.8h-6.2v-1.1l5.7-7.3h1.7l-5.5 7.1h4.3v-2.4h1.5v2.4h2.1v1.3z" class="st1"/></svg>