<svg xmlns="http://www.w3.org/2000/svg" xml:space="preserve" id="Layer_1" x="0" y="0" style="enable-background:new 0 0 400 220" version="1.1" viewBox="0 0 400 220"><style>.st0{fill:none;stroke:#fff;stroke-miterlimit:10}.st1{fill:#fff}</style><path d="M93 142h29v32H93z" class="st0"/><path d="M103.4 189.5c1.1.1 1.9.4 2.5 1s.9 1.3.9 2.2c0 .6-.2 1.2-.5 1.7s-.8.9-1.4 1.2-1.4.4-2.3.4c-.8 0-1.6-.1-2.3-.4-.7-.2-1.3-.6-1.8-1l.7-1.3c.4.4.9.7 1.5.9s1.2.3 1.9.3c.8 0 1.5-.2 1.9-.5.5-.4.7-.8.7-1.5s-.2-1.1-.7-1.4c-.5-.3-1.2-.5-2.1-.5h-.9v-1.1l2.8-3.5H99v-1.4h7.4v1.1l-3 3.8zm12.7 5.1v1.4h-8v-1.1l4.6-4.4c.6-.5.9-1 1.1-1.4s.3-.8.3-1.2c0-.6-.2-1-.6-1.4-.4-.3-1-.5-1.8-.5-1.2 0-2.2.4-2.9 1.2l-1.1-.9c.4-.5 1-.9 1.7-1.2s1.5-.4 2.4-.4c1.2 0 2.1.3 2.8.8.7.6 1 1.3 1 2.3 0 .6-.1 1.2-.4 1.7s-.7 1.1-1.5 1.8l-3.4 3.3h5.8z" class="st1"/><path d="M130 110h29v64h-29z" class="st0"/><path d="M139.8 189.2c.7 0 1.4.1 2 .4.6.3 1 .7 1.4 1.2.3.5.5 1.1.5 1.8s-.2 1.3-.5 1.9c-.3.5-.8.9-1.4 1.2-.6.3-1.3.4-2 .4-1.5 0-2.7-.5-3.5-1.5s-1.2-2.3-1.2-4.1c0-1.2.2-2.3.7-3.2.4-.9 1.1-1.6 1.9-2 .8-.5 1.7-.7 2.8-.7.5 0 1.1.1 1.5.2.5.1.9.3 1.2.5l-.6 1.2c-.5-.4-1.2-.5-2.1-.5-1.2 0-2.1.4-2.7 1.1-.7.7-1 1.8-1 3.1v.4c.3-.5.8-.8 1.3-1.1.4-.2 1-.3 1.7-.3zm-.2 5.6c.7 0 1.3-.2 1.8-.6.5-.4.7-.9.7-1.6 0-.7-.2-1.2-.7-1.6-.5-.4-1.1-.6-1.9-.6-.5 0-.9.1-1.3.3-.4.2-.7.5-.9.8s-.3.7-.3 1.1c0 .4.1.8.3 1.1s.5.6.9.8.9.3 1.4.3zm15-1.6h-2.1v2.8h-1.6v-2.8h-6.2v-1.1l5.7-7.3h1.7l-5.5 7.1h4.3v-2.4h1.5v2.4h2.1v1.3h.1z" class="st1"/><path d="M167 92h29v82h-29z" class="st0"/><path d="M179.4 190.1c.6.2 1.1.6 1.5 1.1.3.5.5 1 .5 1.6 0 .7-.2 1.3-.5 1.8-.4.5-.9.9-1.6 1.1-.7.3-1.5.4-2.4.4s-1.7-.1-2.4-.4c-.7-.3-1.2-.6-1.5-1.1-.4-.5-.5-1.1-.5-1.8 0-.6.2-1.2.5-1.6.3-.5.8-.8 1.5-1.1-.5-.2-.9-.6-1.2-1s-.4-.9-.4-1.4c0-.6.2-1.2.5-1.6.3-.5.8-.8 1.4-1.1.6-.2 1.3-.4 2.1-.4s1.5.1 2.1.4c.6.2 1.1.6 1.4 1.1.3.5.5 1 .5 1.6 0 .5-.1 1-.4 1.4-.2.5-.6.8-1.1 1zm-2.5-4.1c-.8 0-1.4.2-1.8.5-.4.3-.7.8-.7 1.3 0 .6.2 1 .6 1.3.4.3 1 .5 1.8.5s1.4-.2 1.8-.5c.4-.3.7-.8.7-1.3 0-.6-.2-1-.7-1.3-.3-.4-.9-.5-1.7-.5zm0 8.8c.9 0 1.6-.2 2.1-.5.5-.4.8-.9.8-1.5s-.3-1.1-.8-1.5-1.2-.5-2.1-.5c-.9 0-1.6.2-2.1.5-.5.4-.8.8-.8 1.5 0 .6.3 1.1.8 1.5.5.4 1.2.5 2.1.5zm13.8-.2v1.4h-8v-1.1l4.6-4.4c.6-.5.9-1 1.1-1.4.2-.4.3-.8.3-1.2 0-.6-.2-1-.6-1.4-.4-.3-1-.5-1.8-.5-1.2 0-2.2.4-2.9 1.2l-1.1-.9c.4-.5 1-.9 1.7-1.2s1.5-.4 2.4-.4c1.2 0 2.1.3 2.8.8.7.6 1 1.3 1 2.3 0 .6-.1 1.2-.4 1.7-.3.5-.7 1.1-1.5 1.8l-3.4 3.3h5.8z" class="st1"/><path d="M204 78h29v96h-29z" class="st0"/><path d="M213 184.7c1.5 0 2.7.5 3.5 1.5s1.2 2.3 1.2 4.1c0 1.2-.2 2.3-.7 3.2-.4.9-1.1 1.5-1.9 2-.8.4-1.7.7-2.8.7-.5 0-1.1-.1-1.5-.2-.5-.1-.9-.3-1.2-.5l.6-1.2c.5.4 1.3.5 2.2.5 1.2 0 2.1-.4 2.7-1.1.7-.7 1-1.8 1-3.2v-.4c-.3.5-.8.8-1.3 1.1-.6.2-1.2.4-1.9.4s-1.4-.1-2-.4c-.6-.3-1-.7-1.4-1.2-.3-.5-.5-1.1-.5-1.8s.2-1.3.5-1.9c.4-.5.8-.9 1.4-1.2.7-.3 1.4-.4 2.1-.4zm.2 5.6c.5 0 .9-.1 1.3-.3.4-.2.7-.5.9-.8s.3-.7.3-1.1c0-.4-.1-.8-.3-1.1s-.5-.6-.9-.8-.9-.3-1.4-.3c-.7 0-1.3.2-1.8.6-.4.4-.7.9-.7 1.6s.2 1.2.7 1.6 1.1.6 1.9.6zm10.9-1.1c.7 0 1.4.1 2 .4.6.3 1 .7 1.4 1.2.3.5.5 1.1.5 1.8s-.2 1.3-.5 1.9c-.3.5-.8.9-1.4 1.2-.6.3-1.3.4-2 .4-1.5 0-2.7-.5-3.5-1.5s-1.2-2.3-1.2-4.1c0-1.2.2-2.3.7-3.2.4-.9 1.1-1.6 1.9-2 .8-.5 1.7-.7 2.8-.7.5 0 1.1.1 1.5.2.5.1.9.3 1.2.5l-.6 1.2c-.5-.4-1.2-.5-2.1-.5-1.2 0-2.1.4-2.7 1.1-.7.7-1 1.8-1 3.1v.4c.3-.5.8-.8 1.3-1.1.4-.2 1-.3 1.7-.3zm-.2 5.6c.7 0 1.3-.2 1.8-.6.5-.4.7-.9.7-1.6 0-.7-.2-1.2-.7-1.6-.5-.4-1.1-.6-1.9-.6-.5 0-.9.1-1.3.3-.4.2-.7.5-.9.8s-.3.7-.3 1.1c0 .4.1.8.3 1.1s.5.6.9.8.9.3 1.4.3z" class="st1"/><path d="M241 86h29v88h-29z" class="st0"/><path d="M252.8 190.1c.6.2 1.1.6 1.5 1.1s.5 1 .5 1.6c0 .7-.2 1.3-.5 1.8-.4.5-.9.9-1.6 1.1s-1.5.4-2.4.4-1.7-.1-2.4-.4c-.7-.3-1.2-.6-1.5-1.1-.4-.5-.5-1.1-.5-1.8 0-.6.2-1.2.5-1.6.3-.5.8-.8 1.5-1.1-.5-.2-.9-.6-1.2-1s-.4-.9-.4-1.4c0-.6.2-1.2.5-1.6.3-.5.8-.8 1.4-1.1.6-.2 1.3-.4 2.1-.4s1.5.1 2.1.4c.6.2 1.1.6 1.4 1.1.3.5.5 1 .5 1.6 0 .5-.1 1-.4 1.4-.2.5-.6.8-1.1 1zm-2.5-4.1c-.8 0-1.4.2-1.8.5-.4.3-.7.8-.7 1.3 0 .6.2 1 .6 1.3.4.3 1 .5 1.8.5s1.4-.2 1.8-.5c.4-.3.7-.8.7-1.3 0-.6-.2-1-.7-1.3-.3-.4-.9-.5-1.7-.5zm0 8.8c.9 0 1.6-.2 2.1-.5.5-.4.8-.9.8-1.5s-.3-1.1-.8-1.5-1.2-.5-2.1-.5c-.9 0-1.6.2-2.1.5-.5.4-.8.8-.8 1.5 0 .6.3 1.1.8 1.5.6.4 1.3.5 2.1.5zm12.8-4.7c.6.2 1.1.6 1.5 1.1.3.5.5 1 .5 1.6 0 .7-.2 1.3-.5 1.8-.4.5-.9.9-1.6 1.1s-1.5.4-2.4.4-1.7-.1-2.4-.4c-.7-.3-1.2-.6-1.5-1.1-.4-.5-.5-1.1-.5-1.8 0-.6.2-1.2.5-1.6.3-.5.8-.8 1.5-1.1-.5-.2-.9-.6-1.2-1-.3-.4-.4-.9-.4-1.4 0-.6.2-1.2.5-1.6.3-.5.8-.8 1.4-1.1.6-.2 1.3-.4 2.1-.4s1.5.1 2.1.4c.6.2 1.1.6 1.4 1.1s.5 1 .5 1.6c0 .5-.1 1-.4 1.4-.2.5-.6.8-1.1 1zm-2.5-4.1c-.8 0-1.4.2-1.8.5s-.7.8-.7 1.3c0 .6.2 1 .6 1.3s1 .5 1.8.5 1.4-.2 1.8-.5.7-.8.7-1.3c0-.6-.2-1-.7-1.3-.3-.4-.9-.5-1.7-.5zm0 8.8c.9 0 1.6-.2 2.1-.5.5-.4.8-.9.8-1.5s-.3-1.1-.8-1.5-1.2-.5-2.1-.5-1.6.2-2.1.5c-.5.4-.8.8-.8 1.5 0 .6.3 1.1.8 1.5.6.4 1.3.5 2.1.5z" class="st1"/><path d="M278 66h29v108h-29z" class="st0"/><path d="M283.1 184.8V196h-1.6v-9.8H279v-1.4h4.1zm7 11.3c-.9 0-1.7-.2-2.4-.7-.7-.5-1.2-1.1-1.6-2s-.6-1.9-.6-3.1c0-1.2.2-2.2.6-3.1.4-.9.9-1.5 1.6-2s1.5-.7 2.4-.7 1.7.2 2.3.7c.7.4 1.2 1.1 1.6 2s.6 1.9.6 3.1c0 1.2-.2 2.2-.6 3.1-.4.9-.9 1.5-1.6 2-.6.5-1.4.7-2.3.7zm0-1.4c.9 0 1.6-.4 2.1-1.1.5-.7.8-1.8.8-3.2s-.3-2.5-.8-3.2-1.2-1.1-2.1-1.1-1.6.4-2.2 1.1c-.5.7-.8 1.8-.8 3.2s.3 2.5.8 3.2c.6.7 1.3 1.1 2.2 1.1zm10.7 1.4c-.9 0-1.7-.2-2.4-.7-.7-.5-1.2-1.1-1.6-2s-.6-1.9-.6-3.1c0-1.2.2-2.2.6-3.1.4-.9.9-1.5 1.6-2s1.5-.7 2.4-.7 1.7.2 2.3.7c.7.4 1.2 1.1 1.6 2s.6 1.9.6 3.1c0 1.2-.2 2.2-.6 3.1-.4.9-.9 1.5-1.6 2-.6.5-1.4.7-2.3.7zm0-1.4c.9 0 1.6-.4 2.1-1.1.5-.7.8-1.8.8-3.2s-.3-2.5-.8-3.2-1.2-1.1-2.1-1.1-1.6.4-2.2 1.1c-.5.7-.8 1.8-.8 3.2s.3 2.5.8 3.2c.6.7 1.3 1.1 2.2 1.1z" class="st1"/></svg>