<svg xmlns="http://www.w3.org/2000/svg" xml:space="preserve" id="Layer_1" x="0" y="0" style="enable-background:new 0 0 400 220" version="1.1" viewBox="0 0 400 220"><style>.st0{fill:#fff}.st1{fill:none;stroke:#fff;stroke-width:2}</style><path d="M89.5 118.8V130h-2.1v-9.5H85v-1.7h4.5z" class="st0"/><path d="M88 105c10.5 0 19 8.5 19 19s-8.5 19-19 19-19-8.5-19-19 8.5-19 19-19z" class="st1"/><path d="M88 166.1c-.9 0-1.6-.2-2.3-.7-.7-.5-1.2-1.1-1.6-2-.4-.9-.6-1.9-.6-3 0-1.2.2-2.2.6-3 .4-.9.9-1.5 1.6-2 .7-.5 1.5-.7 2.3-.7s1.6.2 2.3.7c.7.5 1.2 1.1 1.6 2 .4.9.6 1.9.6 3 0 1.2-.2 2.2-.6 3-.4.9-.9 1.5-1.6 2-.7.5-1.4.7-2.3.7zm0-1.1c.7 0 1.2-.2 1.7-.5.5-.4.9-.9 1.2-1.6.3-.7.4-1.5.4-2.5s-.1-1.8-.4-2.5c-.3-.7-.7-1.2-1.2-1.6-.5-.4-1.1-.5-1.7-.5-.7 0-1.2.2-1.7.5-.5.4-.9.9-1.2 1.6-.3.7-.4 1.5-.4 2.5s.1 1.8.4 2.5c.3.7.7 1.2 1.2 1.6.5.4 1 .5 1.7.5zM148.2 128.2v1.8h-8.3v-1.4l4.4-4.2c.5-.5.8-.9 1-1.2.2-.4.3-.7.3-1.1 0-.5-.2-.9-.5-1.2-.4-.3-.9-.4-1.6-.4-1.1 0-2 .4-2.6 1.2l-1.5-1.1c.4-.6 1-1 1.8-1.4.7-.3 1.6-.5 2.5-.5 1.2 0 2.2.3 2.9.9.7.6 1.1 1.4 1.1 2.4 0 .6-.1 1.2-.4 1.7-.3.5-.7 1.1-1.5 1.8l-3 2.8h5.4z" class="st0"/><path d="M144 105c10.5 0 19 8.5 19 19s-8.5 19-19 19-19-8.5-19-19 8.5-19 19-19z" class="st1"/><path d="M145 154.8V166h-1.2v-10.2h-2.6v-1h3.8zM200.8 123.4c1 .1 1.8.5 2.4 1.1.5.6.8 1.3.8 2.2 0 .7-.2 1.2-.5 1.8-.3.5-.8 1-1.5 1.3-.7.3-1.5.5-2.4.5-.8 0-1.6-.1-2.3-.3-.7-.2-1.4-.6-1.9-1l.9-1.6c.4.3.9.6 1.5.8.6.2 1.2.3 1.8.3.7 0 1.3-.1 1.7-.4.4-.3.6-.7.6-1.2s-.2-.9-.6-1.2c-.4-.3-1-.4-1.8-.4h-1v-1.4l2.5-3h-5.1v-1.7h7.6v1.4l-2.7 2.8z" class="st0"/><path d="M200 105c10.5 0 19 8.5 19 19s-8.5 19-19 19-19-8.5-19-19 8.5-19 19-19z" class="st1"/><path d="M203.9 165v1H196v-.8l4.7-4.6c.6-.6 1-1.1 1.2-1.5.2-.4.3-.9.3-1.3 0-.7-.2-1.2-.7-1.5-.4-.4-1.1-.6-1.9-.6-1.3 0-2.3.4-3.1 1.2l-.8-.7c.4-.5 1-.9 1.7-1.2.7-.3 1.5-.4 2.3-.4 1.1 0 2 .3 2.7.8.7.5 1 1.3 1 2.2 0 .6-.1 1.1-.4 1.7s-.7 1.1-1.5 1.8l-3.8 3.7h6.2zM261.3 127.5h-2v2.5h-2v-2.5h-6.1V126l5.5-7.2h2.2l-5.2 6.9h3.7v-2.3h2v2.3h2v1.8z" class="st0"/><path d="M256 105c10.5 0 19 8.5 19 19s-8.5 19-19 19-19-8.5-19-19 8.5-19 19-19z" class="st1"/><path d="M256.1 159.6c1.2.1 2.1.4 2.7 1 .6.6.9 1.3.9 2.2 0 .6-.2 1.2-.5 1.7s-.8.9-1.4 1.2-1.3.4-2.2.4c-.8 0-1.6-.1-2.3-.4-.7-.3-1.3-.6-1.7-1.1l.6-.9c.4.4.9.7 1.5.9.6.2 1.3.4 2 .4.9 0 1.6-.2 2.1-.6.5-.4.8-1 .8-1.7s-.3-1.2-.8-1.6c-.5-.4-1.3-.6-2.3-.6h-.8v-.8l3.1-3.9h-5.7v-1h7.2v.8l-3.2 4zM304.5 93.5c-.2.2-.5.3-.8.4-.3.1-.7.1-1 .1-.9 0-1.5-.2-2-.7-.5-.5-.7-1.1-.7-2v-4.7h-1.4v-1.3h1.4v-1.9h1.5v1.9h2.4v1.3h-2.4v4.6c0 .5.1.8.3 1.1.2.2.6.4 1 .4.5 0 .9-.1 1.2-.4l.5 1.2zm5.2.6a4.645 4.645 0 0 1-3.9-2.1c-.4-.7-.6-1.4-.6-2.2s.2-1.6.6-2.2c.4-.7.9-1.2 1.6-1.5.7-.4 1.4-.6 2.3-.6a4.645 4.645 0 0 1 3.9 2.1c.4.7.6 1.4.6 2.2s-.2 1.6-.6 2.2c-.4.7-.9 1.2-1.6 1.5-.7.4-1.4.6-2.3.6zm0-1.3c.5 0 1-.1 1.5-.4.4-.3.8-.6 1-1.1.2-.5.4-1 .4-1.6s-.1-1.1-.4-1.6c-.2-.5-.6-.8-1-1.1-.4-.2-.9-.4-1.5-.4s-1 .1-1.5.4c-.4.2-.8.6-1 1.1-.2.4-.4 1-.4 1.6s.1 1.1.4 1.6c.3.4.6.8 1 1.1.5.2 1 .4 1.5.4zm11-7.4c.8 0 1.6.2 2.2.5s1.2.9 1.5 1.5c.4.7.6 1.4.6 2.3 0 .9-.2 1.6-.6 2.3-.4.7-.9 1.2-1.5 1.5s-1.4.5-2.2.5c-.6 0-1.2-.1-1.7-.4-.5-.2-.9-.6-1.3-1V97h-1.5V85.5h1.5v1.3c.3-.5.8-.8 1.3-1.1.5-.1 1.1-.3 1.7-.3zm-.1 7.4c.5 0 1-.1 1.5-.4.4-.3.8-.6 1-1.1.3-.5.4-1 .4-1.6s-.1-1.1-.4-1.6c-.2-.5-.6-.8-1-1.1-.4-.2-.9-.4-1.5-.4-.5 0-1 .1-1.5.4-.4.2-.8.6-1 1-.2.4-.4 1-.4 1.6s.1 1.1.4 1.6c.2.4.6.8 1 1.1.5.3 1 .5 1.5.5zM311.5 123.1c1.6 0 2.7.3 3.5.9.8.6 1.1 1.4 1.1 2.5 0 .7-.2 1.3-.5 1.8s-.8 1-1.5 1.3c-.7.3-1.5.5-2.4.5-.8 0-1.6-.1-2.3-.3-.7-.2-1.4-.6-1.9-1l.9-1.6c.4.3.9.6 1.5.8.6.2 1.2.3 1.8.3.7 0 1.3-.1 1.7-.4.4-.3.6-.7.6-1.3 0-.6-.2-1-.7-1.3-.4-.3-1.2-.4-2.3-.4h-2.7l.6-6.1h6.6v1.7h-4.8l-.2 2.6h1z" class="st0"/><path d="M312 105c10.5 0 19 8.5 19 19s-8.5 19-19 19-19-8.5-19-19 8.5-19 19-19z" class="st1"/><path d="M317.1 163.1h-2.2v2.9h-1.2v-2.9h-6.3v-.8l5.9-7.4h1.3l-5.7 7.2h4.9v-2.6h1.1v2.6h2.2v1z" class="st0"/></svg>