<svg xmlns="http://www.w3.org/2000/svg" xml:space="preserve" id="Layer_1" x="0" y="0" style="enable-background:new 0 0 400 220" version="1.1" viewBox="0 0 400 220"><style>.st0{fill:#fff}.st1{fill:none;stroke:#fff;stroke-width:2}</style><path d="M93 114.8V126h-2.1v-4.8h-5.8v4.8H83v-11.2h2.1v4.6h5.8v-4.6H93z" class="st0"/><path d="M88 101c10.5 0 19 8.5 19 19s-8.5 19-19 19-19-8.5-19-19 8.5-19 19-19z" class="st1"/><path d="M148.5 124.3v1.7h-8.4v-11.2h8.2v1.7h-6.1v2.9h5.4v1.7h-5.4v3.1h6.3v.1z" class="st0"/><path d="M144 101c10.5 0 19 8.5 19 19s-8.5 19-19 19-19-8.5-19-19 8.5-19 19-19z" class="st1"/><path d="M196.7 114.8h2.1v9.4h5.9v1.8h-7.9v-11.2h-.1z" class="st0"/><path d="M200 101c10.5 0 19 8.5 19 19s-8.5 19-19 19-19-8.5-19-19 8.5-19 19-19z" class="st1"/><path d="M252.7 114.8h2.1v9.4h5.9v1.8h-7.9v-11.2h-.1z" class="st0"/><path d="M256 101c10.5 0 19 8.5 19 19s-8.5 19-19 19-19-8.5-19-19 8.5-19 19-19z" class="st1"/><path d="M312 126.2c-1.1 0-2.2-.2-3.1-.7s-1.6-1.2-2.2-2.1c-.5-.9-.8-1.9-.8-3s.3-2.1.8-2.9c.5-.9 1.2-1.6 2.2-2.1.9-.5 1.9-.8 3.1-.8 1.1 0 2.2.3 3.1.8s1.6 1.2 2.2 2c.5.9.8 1.9.8 3s-.3 2.1-.8 3-1.2 1.6-2.2 2.1c-.9.4-2 .7-3.1.7zm0-1.9c.7 0 1.4-.2 2-.5s1.1-.8 1.4-1.4.5-1.3.5-2-.2-1.4-.5-2-.8-1.1-1.4-1.4-1.3-.5-2-.5-1.4.2-2 .5-1.1.8-1.4 1.4-.5 1.3-.5 2 .2 1.4.5 2 .8 1.1 1.4 1.4c.6.4 1.3.5 2 .5z" class="st0"/><path d="M312 101c10.5 0 19 8.5 19 19s-8.5 19-19 19-19-8.5-19-19 8.5-19 19-19z" class="st1"/></svg>